<svg width="30px" height="30px" version="1.1" id="Warstwa_1" xmlns="http://www.w3.org/2000/svg" xmlns:xlink="http://www.w3.org/1999/xlink" x="0px" y="0px"
	 viewBox="0 0 283.5 283.5" style="enable-background:new 0 0 283.5 283.5;" xml:space="preserve">
<style type="text/css">
	.st0{fill:#231F20;stroke:#000000;stroke-miterlimit:10;}
</style>
<path class="st0" d="M142.6,251.7c-3.5,0-6.9-1.3-9.5-3.6c-10-8.7-19.6-16.9-28.1-24.1l0,0c-24.9-21.2-46.3-39.5-61.3-57.5
	c-16.7-20.2-24.5-39.3-24.5-60.1c0-20.3,7-39,19.6-52.7c12.8-13.9,30.3-21.5,49.4-21.5c14.2,0,27.3,4.5,38.8,13.4
	c5.8,4.5,11,10,15.7,16.4c4.6-6.4,9.9-11.9,15.7-16.4c11.5-8.9,24.5-13.4,38.8-13.4c19.1,0,36.6,7.6,49.4,21.5
	C259,67.3,266,86,266,106.3c0,20.9-7.8,40-24.5,60.1c-14.9,18-36.4,36.3-61.3,57.5c-8.5,7.2-18.1,15.4-28.1,24.2
	C149.5,250.4,146.1,251.7,142.6,251.7z M88.2,46.6c-15,0-28.7,6-38.7,16.8c-10.2,11-15.8,26.2-15.8,42.9c0,17.6,6.5,33.3,21.2,50.9
	c14.1,17.1,35.2,35,59.5,55.7l0,0c8.5,7.3,18.2,15.5,28.2,24.3c10.1-8.8,19.8-17,28.3-24.3c24.3-20.8,45.4-38.7,59.5-55.7
	c14.6-17.6,21.2-33.3,21.2-50.9c0-16.6-5.6-31.9-15.8-42.9c-10-10.9-23.8-16.8-38.7-16.8c-11,0-21,3.5-29.9,10.4
	c-7.9,6.1-13.4,13.9-16.7,19.3c-1.7,2.8-4.6,4.5-7.8,4.5s-6.2-1.7-7.8-4.5c-3.2-5.4-8.8-13.2-16.7-19.3
	C109.2,50.1,99.1,46.6,88.2,46.6z"/>
</svg>