<svg width="30px"  height="30px" version="1.1" id="Warstwa_1" xmlns="http://www.w3.org/2000/svg" xmlns:xlink="http://www.w3.org/1999/xlink" x="0px" y="0px"
	 viewBox="0 0 283.5 283.5" style="enable-background:new 0 0 283.5 283.5;" xml:space="preserve">
<path d="M245.5,110.6L128.4,43L96.2,24.4c-12.3-7.1-27-7.1-39.2,0c-12.3,7.1-19.6,19.8-19.6,34v40.5v131.9c0,14.2,7.3,26.9,19.6,34
	c6.1,3.5,12.9,5.3,19.6,5.3c6.7,0,13.5-1.8,19.6-5.3l61.3-35.4l88-50.8c12.3-7.1,19.6-19.8,19.6-34
	C265.1,130.4,257.8,117.7,245.5,110.6z M229.8,151.3l-94.1,54.3l-55.2,31.9c-3.5,2-6.6,0.7-7.8,0c-1.2-0.7-3.9-2.7-3.9-6.8V133V58.4
	c0-4.1,2.7-6.1,3.9-6.8c0.7-0.4,2.1-1.1,3.9-1.1c1.2,0,2.5,0.3,3.9,1.1l46.9,27.1l102.5,59.2c3.5,2,3.9,5.4,3.9,6.8
	C233.7,145.9,233.3,149.3,229.8,151.3z"/>
</svg>
